<svg xmlns="http://www.w3.org/2000/svg" width="1600" height="960" viewBox="0 0 1600 960">
  <defs>
    <linearGradient id="page" x1="0" y1="0" x2="1" y2="1">
      <stop offset="0" stop-color="#f7fbff"/>
      <stop offset="0.55" stop-color="#eef5fb"/>
      <stop offset="1" stop-color="#f8fafc"/>
    </linearGradient>
    <filter id="softShadow" x="-20%" y="-20%" width="140%" height="140%">
      <feDropShadow dx="0" dy="18" stdDeviation="24" flood-color="#0f172a" flood-opacity="0.13"/>
    </filter>
    <style>
      .title{font:700 28px "Inter","PingFang SC","Noto Sans SC",Arial,sans-serif;fill:#0f172a}
      .h1{font:800 34px "Inter","PingFang SC","Noto Sans SC",Arial,sans-serif;fill:#0f172a}
      .h2{font:700 19px "Inter","PingFang SC","Noto Sans SC",Arial,sans-serif;fill:#172033}
      .body{font:500 16px "Inter","PingFang SC","Noto Sans SC",Arial,sans-serif;fill:#475569}
      .small{font:600 13px "Inter","PingFang SC","Noto Sans SC",Arial,sans-serif;fill:#64748b}
      .mono{font:500 15px "Cascadia Code","SF Mono",Consolas,monospace;fill:#cbd5e1}
      .monoDim{font:500 14px "Cascadia Code","SF Mono",Consolas,monospace;fill:#94a3b8}
      .chip{font:700 14px "Inter","PingFang SC","Noto Sans SC",Arial,sans-serif}
    </style>
  </defs>

  <rect width="1600" height="960" fill="url(#page)"/>
  <rect x="55" y="50" width="1490" height="860" rx="28" fill="#ffffff" filter="url(#softShadow)"/>
  <rect x="55" y="50" width="1490" height="68" rx="28" fill="#fbfdff"/>
  <line x1="55" y1="118" x2="1545" y2="118" stroke="#dbe7f3"/>

  <rect x="84" y="72" width="36" height="36" rx="10" fill="#2563eb"/>
  <text x="102" y="96" text-anchor="middle" font-family="Inter,Arial" font-size="19" font-weight="800" fill="#fff">M</text>
  <text x="138" y="96" class="title">Multi-AI Code</text>
  <rect x="343" y="73" width="84" height="34" rx="17" fill="#eef2f7"/>
  <text x="385" y="95" text-anchor="middle" class="small">v0.1.0</text>
  <text x="450" y="95" class="small">/Users/me/project/mobile-app</text>

  <rect x="1088" y="70" width="94" height="38" rx="12" fill="#eef6ff" stroke="#b6d7ff"/>
  <text x="1135" y="94" text-anchor="middle" class="chip" fill="#1d4ed8">远程 IM</text>
  <rect x="1198" y="70" width="104" height="38" rx="12" fill="#ffffff" stroke="#d9e4ef"/>
  <text x="1250" y="94" text-anchor="middle" class="chip" fill="#334155">Skill 管理</text>
  <rect x="1318" y="70" width="88" height="38" rx="12" fill="#ffffff" stroke="#d9e4ef"/>
  <text x="1362" y="94" text-anchor="middle" class="chip" fill="#334155">构建</text>
  <rect x="1423" y="70" width="93" height="38" rx="19" fill="#dcfce7" stroke="#86efac"/>
  <circle cx="1446" cy="89" r="6" fill="#16a34a"/>
  <text x="1482" y="94" text-anchor="middle" class="chip" fill="#15803d">运行中</text>

  <rect x="84" y="148" width="292" height="725" rx="22" fill="#f8fbff" stroke="#d9e4ef"/>
  <text x="114" y="190" class="h2">项目与任务</text>
  <rect x="114" y="214" width="232" height="44" rx="12" fill="#ffffff" stroke="#d9e4ef"/>
  <text x="134" y="242" class="small">搜索项目 / 普通任务</text>
  <rect x="114" y="285" width="232" height="88" rx="16" fill="#eff6ff" stroke="#3b82f6" stroke-width="2"/>
  <text x="138" y="318" class="h2">移动端 IM</text>
  <text x="138" y="347" class="small">ios/MultiAIIM</text>
  <rect x="274" y="309" width="51" height="25" rx="13" fill="#dcfce7"/>
  <text x="300" y="326" text-anchor="middle" class="small" fill="#15803d">活跃</text>
  <rect x="114" y="393" width="232" height="76" rx="16" fill="#ffffff" stroke="#d9e4ef"/>
  <text x="138" y="424" class="body" fill="#1f2937">README 重写</text>
  <text x="138" y="449" class="small">文档与截图</text>
  <rect x="114" y="489" width="232" height="76" rx="16" fill="#ffffff" stroke="#d9e4ef"/>
  <text x="138" y="520" class="body" fill="#1f2937">图片消息支持</text>
  <text x="138" y="545" class="small">Remote IM</text>
  <rect x="114" y="617" width="232" height="188" rx="18" fill="#ffffff" stroke="#d9e4ef"/>
  <text x="138" y="652" class="h2">今日队列</text>
  <text x="138" y="687" class="body">代码审查</text>
  <text x="138" y="722" class="body">类型检查</text>
  <text x="138" y="757" class="body">构建验证</text>

  <rect x="405" y="148" width="742" height="725" rx="22" fill="#ffffff" stroke="#d9e4ef"/>
  <text x="440" y="196" class="h1">AI CLI 工作区</text>
  <text x="440" y="230" class="body">在真实 PTY 中运行 claude / codex，并把任务上下文送入当前会话。</text>
  <rect x="440" y="266" width="672" height="390" rx="18" fill="#0f172a"/>
  <rect x="440" y="266" width="672" height="46" rx="18" fill="#111c2e"/>
  <circle cx="466" cy="289" r="7" fill="#f87171"/>
  <circle cx="490" cy="289" r="7" fill="#fbbf24"/>
  <circle cx="514" cy="289" r="7" fill="#34d399"/>
  <text x="552" y="294" class="monoDim">codex · mobile-app</text>
  <text x="468" y="350" class="mono">$ codex</text>
  <text x="468" y="386" class="monoDim">读取当前任务：支持 AICLI 图片消息回传</text>
  <text x="468" y="426" class="mono">✓ 使用 imcli send-image 回传图片</text>
  <text x="468" y="462" class="mono">✓ IPC 传递图片二进制</text>
  <text x="468" y="498" class="mono">✓ 前端构造 File 并调用 IM SDK</text>
  <text x="468" y="555" class="monoDim">npm run typecheck</text>
  <text x="468" y="591" class="mono">✓ TypeScript 检查通过</text>
  <rect x="440" y="688" width="672" height="64" rx="16" fill="#f8fafc" stroke="#d9e4ef"/>
  <text x="468" y="727" class="body">输入任务、审查意见或远程 IM 消息...</text>
  <rect x="940" y="700" width="150" height="40" rx="13" fill="#2563eb"/>
  <text x="1015" y="725" text-anchor="middle" class="chip" fill="#fff">发送到 AICLI</text>

  <rect x="1176" y="148" width="340" height="725" rx="22" fill="#f8fbff" stroke="#d9e4ef"/>
  <text x="1210" y="190" class="h2">项目状态</text>
  <rect x="1210" y="219" width="270" height="92" rx="18" fill="#ffffff" stroke="#d9e4ef"/>
  <text x="1235" y="253" class="body">构建</text>
  <rect x="1363" y="236" width="82" height="28" rx="14" fill="#dcfce7"/>
  <text x="1404" y="255" text-anchor="middle" class="small" fill="#15803d">通过</text>
  <text x="1235" y="286" class="small">electron-vite build</text>
  <rect x="1210" y="337" width="270" height="138" rx="18" fill="#ffffff" stroke="#d9e4ef"/>
  <text x="1235" y="373" class="h2">代码审查</text>
  <text x="1235" y="408" class="body">8 个文件已变更</text>
  <text x="1235" y="441" class="small">Remote IM / README</text>
  <rect x="1210" y="501" width="270" height="170" rx="18" fill="#ffffff" stroke="#d9e4ef"/>
  <text x="1235" y="537" class="h2">Skill 编排</text>
  <rect x="1235" y="565" width="96" height="32" rx="16" fill="#fef3c7"/>
  <text x="1283" y="586" text-anchor="middle" class="small" fill="#92400e">测试</text>
  <rect x="1343" y="565" width="96" height="32" rx="16" fill="#e0f2fe"/>
  <text x="1391" y="586" text-anchor="middle" class="small" fill="#0369a1">审查</text>
  <text x="1235" y="632" class="small">把重复工作沉淀为项目流程</text>
  <rect x="1210" y="700" width="270" height="80" rx="18" fill="#ecfeff" stroke="#a5f3fc"/>
  <text x="1235" y="735" class="body" fill="#0f766e">本地优先数据</text>
  <text x="1235" y="762" class="small">任务、记录和消息保存在本机</text>
</svg>
