<svg xmlns="http://www.w3.org/2000/svg" width="1600" height="960" viewBox="0 0 1600 960">
  <defs>
    <linearGradient id="page" x1="0" y1="0" x2="1" y2="1">
      <stop offset="0" stop-color="#f8fbff"/>
      <stop offset="1" stop-color="#eef4f8"/>
    </linearGradient>
    <filter id="shadow" x="-20%" y="-20%" width="140%" height="140%">
      <feDropShadow dx="0" dy="24" stdDeviation="28" flood-color="#0f172a" flood-opacity="0.16"/>
    </filter>
    <style>
      .title{font:800 28px "Inter","PingFang SC","Noto Sans SC",Arial,sans-serif;fill:#0f172a}
      .h1{font:800 31px "Inter","PingFang SC","Noto Sans SC",Arial,sans-serif;fill:#0f172a}
      .h2{font:700 20px "Inter","PingFang SC","Noto Sans SC",Arial,sans-serif;fill:#172033}
      .body{font:500 16px "Inter","PingFang SC","Noto Sans SC",Arial,sans-serif;fill:#475569}
      .small{font:600 13px "Inter","PingFang SC","Noto Sans SC",Arial,sans-serif;fill:#64748b}
      .chip{font:700 14px "Inter","PingFang SC","Noto Sans SC",Arial,sans-serif}
      .mono{font:500 14px "Cascadia Code","SF Mono",Consolas,monospace;fill:#334155}
    </style>
  </defs>

  <rect width="1600" height="960" fill="url(#page)"/>
  <rect x="48" y="46" width="1504" height="868" rx="26" fill="#ffffff" filter="url(#shadow)"/>
  <rect x="48" y="46" width="1504" height="66" rx="26" fill="#fbfdff"/>
  <line x1="48" y1="112" x2="1552" y2="112" stroke="#dbe7f3"/>

  <rect x="78" y="68" width="36" height="36" rx="10" fill="#2563eb"/>
  <text x="96" y="92" text-anchor="middle" font-family="Inter,Arial" font-size="19" font-weight="800" fill="#fff">M</text>
  <text x="132" y="92" class="title">Multi-AI Code</text>
  <text x="350" y="92" class="small">远程 IM · 当前会话 whq-iphone</text>
  <rect x="1148" y="66" width="118" height="38" rx="19" fill="#dcfce7"/>
  <circle cx="1173" cy="85" r="6" fill="#16a34a"/>
  <text x="1220" y="90" text-anchor="middle" class="chip" fill="#15803d">已连接</text>
  <rect x="1288" y="66" width="118" height="38" rx="13" fill="#eff6ff" stroke="#bfdbfe"/>
  <text x="1347" y="90" text-anchor="middle" class="chip" fill="#1d4ed8">mac-office</text>
  <rect x="1424" y="66" width="74" height="38" rx="13" fill="#ffffff" stroke="#d9e4ef"/>
  <text x="1461" y="90" text-anchor="middle" class="chip" fill="#475569">Clear</text>

  <rect x="74" y="138" width="330" height="730" rx="22" fill="#f8fbff" stroke="#d9e4ef"/>
  <text x="106" y="184" class="h2">会话</text>
  <rect x="106" y="213" width="112" height="42" rx="12" fill="#e0f2fe" stroke="#7dd3fc"/>
  <text x="162" y="240" text-anchor="middle" class="chip" fill="#0369a1">最近</text>
  <rect x="232" y="213" width="112" height="42" rx="12" fill="#ffffff" stroke="#d9e4ef"/>
  <text x="288" y="240" text-anchor="middle" class="chip" fill="#475569">好友</text>
  <rect x="106" y="283" width="266" height="86" rx="16" fill="#eff6ff" stroke="#3b82f6" stroke-width="2"/>
  <circle cx="136" cy="326" r="14" fill="#22c55e"/>
  <text x="166" y="315" class="h2">whq-iphone</text>
  <text x="166" y="343" class="small">图片消息已发送</text>
  <rect x="314" y="304" width="44" height="24" rx="12" fill="#dcfce7"/>
  <text x="336" y="321" text-anchor="middle" class="small" fill="#15803d">好友</text>
  <rect x="106" y="390" width="266" height="78" rx="16" fill="#ffffff" stroke="#d9e4ef"/>
  <text x="136" y="421" class="body">design-mac</text>
  <text x="136" y="446" class="small">等待新消息</text>
  <rect x="106" y="508" width="266" height="154" rx="18" fill="#ffffff" stroke="#d9e4ef"/>
  <text x="130" y="543" class="h2">添加联系人</text>
  <rect x="130" y="570" width="218" height="40" rx="10" fill="#f8fafc" stroke="#d9e4ef"/>
  <text x="148" y="596" class="small">账号 ID</text>
  <rect x="130" y="622" width="218" height="32" rx="10" fill="#0ea5e9"/>
  <text x="239" y="644" text-anchor="middle" class="chip" fill="#ffffff">添加</text>

  <rect x="404" y="138" width="742" height="730" fill="#ffffff" stroke="#d9e4ef"/>
  <rect x="404" y="138" width="742" height="74" fill="#fbfdff"/>
  <text x="438" y="178" class="small">当前会话</text>
  <text x="438" y="203" class="h1">whq-iphone</text>
  <rect x="1060" y="164" width="55" height="28" rx="14" fill="#eff6ff"/>
  <text x="1088" y="183" text-anchor="middle" class="small" fill="#1d4ed8">好友</text>
  <line x1="404" y1="212" x2="1146" y2="212" stroke="#dbe7f3"/>

  <text x="438" y="255" class="small">mac-office · 19:07</text>
  <rect x="438" y="276" width="592" height="180" rx="17" fill="#fffdf1" stroke="#fde68a"/>
  <text x="470" y="312" class="h2">桌面截图已保存</text>
  <rect x="470" y="336" width="220" height="86" rx="14" fill="#e0f2fe"/>
  <rect x="488" y="354" width="70" height="50" rx="9" fill="#2563eb"/>
  <path d="M500 393 L522 372 L540 389 L552 378 L552 404 L500 404 Z" fill="#bfdbfe"/>
  <text x="575" y="372" class="body">desktop_shot.png</text>
  <text x="575" y="400" class="small">实际图片消息 · 可在手机端打开</text>
  <circle cx="1002" cy="428" r="18" fill="#bbf7d0"/>
  <path d="M994 429 l6 6 l10 -16" fill="none" stroke="#16a34a" stroke-width="4" stroke-linecap="round" stroke-linejoin="round"/>

  <text x="438" y="500" class="small">AICLI 输出 · 19:08</text>
  <rect x="438" y="522" width="592" height="136" rx="17" fill="#f8fafc" stroke="#d9e4ef"/>
  <text x="470" y="558" class="body">已完成 README 截图更新，并把本地图片路径转换成图片消息。</text>
  <text x="470" y="594" class="mono">/Users/me/MultiAICode/remote-im/images/desktop_shot.png</text>
  <rect x="470" y="613" width="104" height="28" rx="14" fill="#dcfce7"/>
  <text x="522" y="632" text-anchor="middle" class="small" fill="#15803d">已回传</text>

  <rect x="438" y="712" width="110" height="58" rx="18" fill="#ffffff" stroke="#cbd5e1" stroke-width="2"/>
  <text x="493" y="749" text-anchor="middle" class="chip" fill="#0f172a">语音</text>
  <rect x="568" y="712" width="416" height="58" rx="18" fill="#f8fafc" stroke="#cbd5e1" stroke-width="2"/>
  <text x="594" y="749" class="body">输入要发送给当前联系人的消息...</text>
  <rect x="1002" y="712" width="58" height="58" rx="18" fill="#ffffff" stroke="#cbd5e1" stroke-width="2"/>
  <line x1="1031" y1="730" x2="1031" y2="752" stroke="#0f172a" stroke-width="4" stroke-linecap="round"/>
  <line x1="1020" y1="741" x2="1042" y2="741" stroke="#0f172a" stroke-width="4" stroke-linecap="round"/>
  <rect x="1078" y="712" width="54" height="58" rx="18" fill="#7dd3fc"/>
  <text x="1105" y="749" text-anchor="middle" class="chip" fill="#fff">发</text>

  <rect x="1178" y="138" width="300" height="730" rx="22" fill="#f8fbff" stroke="#d9e4ef"/>
  <text x="1212" y="184" class="h2">联系人资料</text>
  <circle cx="1240" cy="242" r="33" fill="#2563eb"/>
  <text x="1240" y="252" text-anchor="middle" font-family="Inter,Arial" font-size="24" font-weight="800" fill="#fff">W</text>
  <text x="1290" y="232" class="h2">whq-iphone</text>
  <text x="1290" y="260" class="small">移动端在线</text>
  <rect x="1212" y="316" width="234" height="114" rx="16" fill="#ffffff" stroke="#d9e4ef"/>
  <text x="1236" y="352" class="h2">会话能力</text>
  <text x="1236" y="388" class="body">文本、语音、图片</text>
  <rect x="1212" y="456" width="234" height="146" rx="16" fill="#ffffff" stroke="#d9e4ef"/>
  <text x="1236" y="492" class="h2">AICLI 回传</text>
  <text x="1236" y="528" class="body">Markdown 输出</text>
  <text x="1236" y="560" class="body">本地图片路径识别</text>
  <rect x="1212" y="638" width="234" height="84" rx="16" fill="#ecfeff" stroke="#a5f3fc"/>
  <text x="1236" y="674" class="body" fill="#0f766e">消息记录保存在本机</text>
  <text x="1236" y="700" class="small">随项目独立管理</text>
</svg>
