<svg xmlns="http://www.w3.org/2000/svg" width="128" height="128" viewBox="0 0 128 128">
<rect width="128" height="128" rx="28" fill="#c8d7ee"/>
<circle cx="107" cy="19" r="12" fill="#ffffff" opacity=".26"/>
<path d="M18 128Q24 101 43 99L85 99Q106 101 111 128Z" fill="#8750b9"/>
<path d="M52 94h25v22l-12 8-13-8z" fill="#ae785b"/>
<path d="M43 99l22 22 20-22" fill="none" stroke="#6e3b9b" stroke-width="4" opacity=".35"/>
<circle cx="35" cy="72" r="8" fill="#ae785b"/><circle cx="94" cy="72" r="8" fill="#ae785b"/>
<ellipse cx="65" cy="65" rx="31" ry="39" fill="#ae785b"/>
<g fill="#2e4149"><path d="M33 58 Q29 31 55 26 Q83 20 95 43 L94 61 Q86 53 83 44 Q72 55 60 44 Q48 53 33 58Z"/></g><path d="M44 44l-6-6m8 0l-8 6" stroke="#f0d183" stroke-width="3" stroke-linecap="round"/>
<ellipse cx="47" cy="79" rx="6" ry="3.5" fill="#db907f" opacity=".28"/>
<ellipse cx="82" cy="79" rx="6" ry="3.5" fill="#db907f" opacity=".28"/>
<g fill="#2e4149"><path d="M49 68q4-5 8 0m15 0q4-5 8 0" fill="none" stroke="#2e4149" stroke-width="3.2" stroke-linecap="round"/></g>
<path d="M64 69l-2 9h4" fill="none" stroke="#ad755f" stroke-width="1.8" stroke-linecap="round" stroke-linejoin="round" opacity=".55"/>
<g fill="none" stroke="#9b625b" stroke-width="2.5" stroke-linecap="round"><path d="M59 84q6 3 12 0"/></g>
</svg>