<svg width="1024" height="1024" viewBox="0 0 1024 1024" xmlns="http://www.w3.org/2000/svg">
  <defs>
    <linearGradient id="bg" x1="0" y1="0" x2="1" y2="1">
      <stop offset="0" stop-color="#5B9BFF"/>
      <stop offset="1" stop-color="#1E40AF"/>
    </linearGradient>
  </defs>

  <rect width="1024" height="1024" rx="228" fill="url(#bg)"/>
  <rect width="1024" height="520" rx="228" fill="#ffffff" opacity="0.08"/>

  <!-- back bubble (relay / second party) -->
  <rect x="512" y="238" width="372" height="250" rx="74" fill="#ffffff" opacity="0.40"/>

  <!-- front bubble (solid) + tail -->
  <path d="M257 400
           h500
           a92 92 0 0 1 92 92
           v146
           a92 92 0 0 1 -92 92
           h-360
           l-118 96
           v-96
           h-22
           a92 92 0 0 1 -92 -92
           v-146
           a92 92 0 0 1 92 -92 z" fill="#ffffff"/>

  <!-- typing / message dots: two brand-blue + one teal accent -->
  <circle cx="410" cy="566" r="42" fill="#1D4ED8"/>
  <circle cx="527" cy="566" r="42" fill="#1D4ED8"/>
  <circle cx="644" cy="566" r="42" fill="#22D3EE"/>
</svg>
