<svg width="1440" height="900" viewBox="0 0 1440 900" fill="none" xmlns="http://www.w3.org/2000/svg">
  <defs>
    <filter id="shadow" x="-20%" y="-20%" width="140%" height="140%">
      <feDropShadow dx="0" dy="10" stdDeviation="18" flood-color="#0f172a" flood-opacity="0.12"/>
    </filter>
    <style>
      .bg { fill: #f3f6fa; }
      .surface { fill: #ffffff; }
      .panel { fill: #ffffff; stroke: #dbe5f1; stroke-width: 1; }
      .soft { fill: #f8fafc; stroke: #e2e8f0; stroke-width: 1; }
      .selected { fill: #e8f2ff; stroke: #2f80ed; stroke-width: 1.5; }
      .text { fill: #0f172a; font-family: "Noto Sans SC", "Microsoft YaHei UI", "Segoe UI", sans-serif; }
      .muted { fill: #64748b; font-family: "Noto Sans SC", "Microsoft YaHei UI", "Segoe UI", sans-serif; }
      .subtle { fill: #94a3b8; font-family: "Noto Sans SC", "Microsoft YaHei UI", "Segoe UI", sans-serif; }
      .mono { fill: #334155; font-family: "Cascadia Code", Consolas, monospace; }
      .title { font-size: 24px; font-weight: 800; }
      .h2 { font-size: 18px; font-weight: 800; }
      .label { font-size: 13px; font-weight: 700; }
      .body { font-size: 14px; font-weight: 500; }
      .small { font-size: 12px; font-weight: 600; }
      .chipText { font-size: 12px; font-weight: 800; font-family: "Noto Sans SC", "Microsoft YaHei UI", sans-serif; }
      .buttonText { font-size: 14px; font-weight: 800; font-family: "Noto Sans SC", "Microsoft YaHei UI", sans-serif; }
    </style>
  </defs>

  <rect class="bg" width="1440" height="900"/>

  <rect x="18" y="18" width="1404" height="864" rx="18" class="surface" filter="url(#shadow)"/>
  <rect x="18" y="18" width="1404" height="64" rx="18" fill="#ffffff"/>
  <path d="M18 64H1422" stroke="#e2e8f0"/>

  <rect x="42" y="36" width="28" height="28" rx="8" fill="#2f80ed"/>
  <text x="56" y="56" text-anchor="middle" class="text" fill="#ffffff" font-size="15" font-weight="900">M</text>
  <text x="84" y="57" class="text" font-size="19" font-weight="800">Multi-AI Code</text>
  <text x="254" y="56" class="subtle" font-size="13">v0.1.0 · C:\Users\18034\AppData\Local\Temp\multi-ai-code-mutual</text>

  <text x="770" y="56" class="muted body">设置</text>
  <rect x="835" y="30" width="104" height="38" rx="10" fill="#e8f2ff" stroke="#bfdbfe"/>
  <circle cx="856" cy="49" r="5" fill="#22c55e"/>
  <text x="874" y="55" fill="#1d4ed8" font-family="Noto Sans SC, Microsoft YaHei UI, sans-serif" font-size="14" font-weight="800">远程 IM</text>
  <text x="970" y="56" class="muted body">Skill 管理</text>
  <text x="1070" y="56" class="muted body">截图采样</text>
  <text x="1180" y="56" class="muted body">日志</text>
  <rect x="1315" y="31" width="76" height="36" rx="18" fill="#dcfce7" stroke="#86efac"/>
  <text x="1353" y="55" text-anchor="middle" fill="#15803d" font-family="Noto Sans SC, Microsoft YaHei UI, sans-serif" font-size="13" font-weight="800">运行中</text>

  <rect x="42" y="106" width="300" height="746" rx="16" class="panel"/>
  <text x="66" y="143" class="text h2">通信节点</text>
  <rect x="252" y="121" width="64" height="28" rx="14" fill="#eff6ff" stroke="#bfdbfe"/>
  <text x="284" y="140" text-anchor="middle" fill="#2563eb" font-family="Noto Sans SC, Microsoft YaHei UI, sans-serif" font-size="12" font-weight="800">3 个</text>

  <rect x="66" y="166" width="250" height="38" rx="10" class="soft"/>
  <text x="84" y="190" class="subtle body">搜索节点</text>

  <rect x="66" y="220" width="250" height="38" rx="11" fill="#f1f5f9"/>
  <rect x="70" y="224" width="75" height="30" rx="9" fill="#ffffff" stroke="#dbe5f1"/>
  <text x="108" y="244" text-anchor="middle" class="text small">全部</text>
  <text x="190" y="244" text-anchor="middle" class="muted small">主人</text>
  <text x="272" y="244" text-anchor="middle" class="muted small">奴隶</text>

  <rect x="66" y="282" width="250" height="88" rx="14" class="selected"/>
  <circle cx="94" cy="314" r="16" fill="#2f80ed"/>
  <text x="94" y="319" text-anchor="middle" fill="#ffffff" font-family="Noto Sans SC, Microsoft YaHei UI, sans-serif" font-size="13" font-weight="900">奴</text>
  <text x="120" y="311" class="text" font-size="15" font-weight="800">安卓构建机</text>
  <text x="120" y="335" class="muted small">multi_ai_code_e2e_b</text>
  <rect x="244" y="294" width="50" height="24" rx="12" fill="#dcfce7"/>
  <text x="269" y="311" text-anchor="middle" fill="#15803d" class="chipText">在线</text>
  <rect x="120" y="344" width="64" height="18" rx="9" fill="#fef3c7"/>
  <text x="152" y="358" text-anchor="middle" fill="#b45309" class="chipText" font-size="11">执行中</text>

  <rect x="66" y="386" width="250" height="82" rx="14" class="soft"/>
  <circle cx="94" cy="416" r="16" fill="#e2e8f0"/>
  <text x="94" y="421" text-anchor="middle" class="muted" font-size="13" font-weight="900">奴</text>
  <text x="120" y="414" class="text" font-size="15" font-weight="800">测试机 B</text>
  <text x="120" y="438" class="muted small">multi_ai_code_lab_b</text>
  <rect x="244" y="399" width="50" height="24" rx="12" fill="#f1f5f9"/>
  <text x="269" y="416" text-anchor="middle" class="muted chipText">空闲</text>

  <rect x="66" y="484" width="250" height="82" rx="14" class="soft"/>
  <circle cx="94" cy="514" r="16" fill="#0ea5e9"/>
  <text x="94" y="519" text-anchor="middle" fill="#ffffff" font-family="Noto Sans SC, Microsoft YaHei UI, sans-serif" font-size="13" font-weight="900">主</text>
  <text x="120" y="512" class="text" font-size="15" font-weight="800">本机主人</text>
  <text x="120" y="536" class="muted small">multi_ai_code_e2e_a</text>
  <rect x="244" y="497" width="50" height="24" rx="12" fill="#dcfce7"/>
  <text x="269" y="514" text-anchor="middle" fill="#15803d" class="chipText">在线</text>

  <rect x="66" y="612" width="250" height="196" rx="14" fill="#f8fafc" stroke="#e2e8f0"/>
  <text x="86" y="644" class="text label">快速规则</text>
  <text x="86" y="674" class="muted small">主人 → 奴隶：发送任务</text>
  <text x="86" y="704" class="muted small">奴隶 → 主人：只回传结果</text>
  <text x="86" y="734" class="muted small">主人 ↔ 主人：平等通信</text>
  <text x="86" y="764" class="muted small">奴隶 ↔ 奴隶：禁止通信</text>

  <rect x="366" y="106" width="676" height="746" rx="16" class="panel"/>
  <text x="394" y="143" class="text h2">与 安卓构建机 通信</text>
  <rect x="860" y="120" width="70" height="28" rx="14" fill="#dcfce7"/>
  <text x="895" y="139" text-anchor="middle" fill="#15803d" class="chipText">连接正常</text>
  <rect x="942" y="120" width="72" height="28" rx="14" fill="#f8fafc" stroke="#dbe5f1"/>
  <text x="978" y="139" text-anchor="middle" class="muted chipText">清空</text>

  <rect x="394" y="166" width="620" height="558" rx="16" fill="#f8fafc" stroke="#e2e8f0"/>
  <text x="418" y="202" class="subtle small">今天 01:08</text>

  <rect x="418" y="224" width="360" height="76" rx="15" fill="#e8f2ff" stroke="#bfdbfe"/>
  <text x="442" y="253" fill="#1e40af" font-family="Noto Sans SC, Microsoft YaHei UI, sans-serif" font-size="14" font-weight="800">任务</text>
  <text x="442" y="280" class="text body">请检查构建并回传结果</text>
  <rect x="790" y="246" width="72" height="28" rx="14" fill="#eff6ff" stroke="#bfdbfe"/>
  <text x="826" y="265" text-anchor="middle" fill="#2563eb" class="chipText">已发送</text>

  <rect x="418" y="330" width="536" height="238" rx="15" fill="#ffffff" stroke="#fde68a"/>
  <rect x="440" y="354" width="94" height="28" rx="14" fill="#fffbeb"/>
  <text x="487" y="373" text-anchor="middle" fill="#b45309" class="chipText">AICLI 回传</text>
  <text x="440" y="412" class="text body" font-weight="800">构建检查完成</text>
  <circle cx="448" cy="444" r="3.5" fill="#64748b"/>
  <text x="464" y="450" class="muted body">npm test 通过</text>
  <circle cx="448" cy="478" r="3.5" fill="#64748b"/>
  <text x="464" y="484" class="muted body">typecheck 通过</text>
  <circle cx="448" cy="512" r="3.5" fill="#64748b"/>
  <text x="464" y="518" class="muted body">无阻塞问题，可以继续执行</text>
  <rect x="836" y="522" width="82" height="28" rx="14" fill="#dcfce7"/>
  <text x="877" y="541" text-anchor="middle" fill="#15803d" class="chipText">已回传</text>

  <rect x="418" y="602" width="480" height="74" rx="15" fill="#ffffff" stroke="#dbe5f1"/>
  <text x="442" y="633" class="text body" font-weight="800">系统</text>
  <text x="442" y="659" class="muted body">任务输出已保存到当前会话记录。</text>

  <rect x="394" y="744" width="620" height="84" rx="16" fill="#ffffff" stroke="#e2e8f0"/>
  <rect x="418" y="766" width="420" height="40" rx="12" fill="#f8fafc" stroke="#cbd5e1"/>
  <text x="438" y="791" class="subtle body">输入要发送给该奴隶的任务...</text>
  <rect x="852" y="766" width="104" height="40" rx="12" fill="#2f80ed"/>
  <text x="904" y="791" text-anchor="middle" fill="#ffffff" class="buttonText">发送任务</text>
  <rect x="968" y="766" width="38" height="40" rx="12" fill="#f8fafc" stroke="#cbd5e1"/>
  <text x="987" y="791" text-anchor="middle" class="muted buttonText">+</text>

  <rect x="1066" y="106" width="332" height="746" rx="16" class="panel"/>
  <text x="1090" y="143" class="text h2">节点详情</text>
  <rect x="1288" y="120" width="84" height="28" rx="14" fill="#eff6ff" stroke="#bfdbfe"/>
  <text x="1330" y="139" text-anchor="middle" fill="#2563eb" class="chipText">编辑节点</text>

  <rect x="1090" y="166" width="284" height="156" rx="16" fill="#f8fafc" stroke="#e2e8f0"/>
  <circle cx="1124" cy="204" r="20" fill="#2f80ed"/>
  <text x="1124" y="211" text-anchor="middle" fill="#ffffff" font-family="Noto Sans SC, Microsoft YaHei UI, sans-serif" font-size="16" font-weight="900">奴</text>
  <text x="1156" y="201" class="text" font-size="16" font-weight="850">安卓构建机</text>
  <text x="1156" y="225" class="muted small">Slave node</text>
  <rect x="1108" y="252" width="92" height="28" rx="14" fill="#dcfce7"/>
  <text x="1154" y="271" text-anchor="middle" fill="#15803d" class="chipText">连接正常</text>
  <rect x="1210" y="252" width="76" height="28" rx="14" fill="#fef3c7"/>
  <text x="1248" y="271" text-anchor="middle" fill="#b45309" class="chipText">执行中</text>

  <text x="1090" y="360" class="muted small">UserID</text>
  <rect x="1090" y="374" width="284" height="42" rx="11" fill="#ffffff" stroke="#e2e8f0"/>
  <text x="1110" y="401" class="mono" font-size="13">multi_ai_code_e2e_b</text>

  <text x="1090" y="448" class="muted small">角色</text>
  <rect x="1090" y="462" width="132" height="42" rx="11" fill="#ffffff" stroke="#e2e8f0"/>
  <text x="1110" y="489" class="text body">奴隶</text>

  <text x="1242" y="448" class="muted small">最近活动</text>
  <rect x="1242" y="462" width="132" height="42" rx="11" fill="#ffffff" stroke="#e2e8f0"/>
  <text x="1262" y="489" class="text body">1 分钟前</text>

  <text x="1090" y="536" class="muted small">当前任务状态</text>
  <rect x="1090" y="550" width="284" height="42" rx="11" fill="#ffffff" stroke="#e2e8f0"/>
  <text x="1110" y="577" class="text body">正在处理主人任务</text>

  <rect x="1090" y="626" width="284" height="156" rx="16" fill="#f8fafc" stroke="#e2e8f0"/>
  <text x="1114" y="660" class="text label">通信配置</text>
  <text x="1114" y="692" class="muted small">SDKAppID、凭证预设和 SecretKey</text>
  <text x="1114" y="718" class="muted small">统一在「设置 · 远程 IM」中维护。</text>
  <rect x="1114" y="738" width="118" height="30" rx="15" fill="#eff6ff" stroke="#bfdbfe"/>
  <text x="1173" y="758" text-anchor="middle" fill="#2563eb" class="chipText">打开设置</text>

  <text x="1090" y="820" class="subtle small">发送任务前先选择目标节点，回包会自动归入对应会话。</text>
</svg>
