<svg width="1440" height="900" viewBox="0 0 1440 900" fill="none" xmlns="http://www.w3.org/2000/svg">
  <defs>
    <filter id="shadow" x="-20%" y="-20%" width="140%" height="140%">
      <feDropShadow dx="0" dy="18" stdDeviation="24" flood-color="#101828" flood-opacity="0.16"/>
    </filter>
    <filter id="softShadow" x="-20%" y="-20%" width="140%" height="140%">
      <feDropShadow dx="0" dy="8" stdDeviation="12" flood-color="#101828" flood-opacity="0.08"/>
    </filter>
    <linearGradient id="bg" x1="0" y1="0" x2="1440" y2="900">
      <stop stop-color="#F7FAFF"/>
      <stop offset="1" stop-color="#EEF3FA"/>
    </linearGradient>
    <linearGradient id="accent" x1="0" y1="0" x2="1" y2="1">
      <stop stop-color="#1677FF"/>
      <stop offset="1" stop-color="#3B82F6"/>
    </linearGradient>
    <linearGradient id="modalTop" x1="160" y1="72" x2="1280" y2="832">
      <stop stop-color="#FFFFFF"/>
      <stop offset="1" stop-color="#F8FBFF"/>
    </linearGradient>
    <style>
      .app-title { font: 700 23px "Inter", "Segoe UI", "Microsoft YaHei", sans-serif; fill: #101828; }
      .title { font: 750 24px "Inter", "Segoe UI", "Microsoft YaHei", sans-serif; fill: #101828; }
      .section { font: 750 18px "Inter", "Segoe UI", "Microsoft YaHei", sans-serif; fill: #101828; }
      .card-title { font: 750 16px "Inter", "Segoe UI", "Microsoft YaHei", sans-serif; fill: #101828; }
      .label { font: 650 13px "Inter", "Segoe UI", "Microsoft YaHei", sans-serif; fill: #344054; }
      .txt { font: 400 13px "Inter", "Segoe UI", "Microsoft YaHei", sans-serif; fill: #475467; }
      .muted { font: 400 12px "Inter", "Segoe UI", "Microsoft YaHei", sans-serif; fill: #667085; }
      .tiny { font: 500 11px "Inter", "Segoe UI", "Microsoft YaHei", sans-serif; fill: #667085; }
      .number { font: 800 26px "Inter", "Segoe UI", "Microsoft YaHei", sans-serif; fill: #101828; }
      .btn { font: 700 13px "Inter", "Segoe UI", "Microsoft YaHei", sans-serif; fill: #FFFFFF; }
      .btn2 { font: 650 13px "Inter", "Segoe UI", "Microsoft YaHei", sans-serif; fill: #344054; }
      .pill { font: 700 11px "Inter", "Segoe UI", "Microsoft YaHei", sans-serif; }
      .mono { font: 400 12px "Cascadia Code", "Consolas", "Microsoft YaHei", monospace; fill: #344054; }
    </style>
  </defs>

  <rect width="1440" height="900" fill="url(#bg)"/>

  <!-- Background app shell -->
  <rect x="36" y="28" width="1368" height="844" rx="22" fill="#FFFFFF" filter="url(#shadow)"/>
  <rect x="36" y="28" width="1368" height="64" rx="22" fill="#F9FAFB"/>
  <path d="M36 92H1404" stroke="#EAECF0"/>
  <circle cx="67" cy="60" r="7" fill="#FF5F57"/>
  <circle cx="91" cy="60" r="7" fill="#FFBD2E"/>
  <circle cx="115" cy="60" r="7" fill="#28C840"/>
  <text x="145" y="68" class="app-title">Multi-AI Code</text>
  <rect x="360" y="44" width="330" height="32" rx="10" fill="#F2F4F7"/>
  <text x="382" y="65" class="muted">v0.1.0 · E:\OpenSource\obs-studio</text>
  <rect x="940" y="44" width="118" height="32" rx="10" fill="#EEF4FF"/>
  <text x="964" y="65" class="label">Skill 管理</text>
  <rect x="1070" y="44" width="124" height="32" rx="10" fill="#EEF4FF"/>
  <text x="1092" y="65" class="label">Skill 编排</text>
  <rect x="1206" y="44" width="96" height="32" rx="10" fill="#ECFDF3"/>
  <circle cx="1228" cy="60" r="5" fill="#12B76A"/>
  <text x="1240" y="65" class="label">运行中</text>

  <rect x="70" y="125" width="620" height="54" rx="14" fill="#F2F4F7"/>
  <text x="96" y="158" class="txt">方案：libobs-d3d12 对齐 d3d11 风格</text>
  <rect x="70" y="210" width="1298" height="600" rx="18" fill="#F9FAFB"/>
  <text x="100" y="255" class="section">主会话输出</text>
  <path d="M100 290H1338" stroke="#EAECF0"/>
  <text x="100" y="338" class="mono">&gt; 当前 AICLI 会话正在等待输入...</text>

  <!-- Dim overlay -->
  <rect width="1440" height="900" fill="#111827" opacity="0.34"/>

  <!-- Modal -->
  <rect x="154" y="66" width="1132" height="768" rx="28" fill="url(#modalTop)" filter="url(#shadow)"/>
  <rect x="154" y="66" width="1132" height="78" rx="28" fill="#FFFFFF"/>
  <path d="M154 144H1286" stroke="#EAECF0"/>
  <rect x="186" y="92" width="36" height="36" rx="12" fill="#EAF3FF"/>
  <text x="196" y="117" style="font: 700 20px 'Segoe UI Emoji','Microsoft YaHei'; fill:#1677FF;">⏰</text>
  <text x="236" y="116" class="title">定时任务管理</text>
  <rect x="1112" y="92" width="118" height="36" rx="12" fill="#F2F4F7"/>
  <circle cx="1132" cy="110" r="5" fill="#12B76A"/>
  <text x="1144" y="116" class="label">AICLI 空闲</text>
  <text x="1248" y="116" style="font: 700 24px 'Segoe UI', sans-serif; fill:#667085;">×</text>

  <!-- Summary cards -->
  <rect x="188" y="168" width="238" height="92" rx="20" fill="#FFFFFF" filter="url(#softShadow)"/>
  <rect x="208" y="188" width="42" height="42" rx="14" fill="#EFF8FF"/>
  <text x="220" y="216" style="font: 700 20px 'Segoe UI Emoji'; fill:#1677FF;">✓</text>
  <text x="268" y="202" class="muted">已启用任务</text>
  <text x="268" y="236" class="number">3</text>

  <rect x="446" y="168" width="238" height="92" rx="20" fill="#FFFFFF" filter="url(#softShadow)"/>
  <rect x="466" y="188" width="42" height="42" rx="14" fill="#FFFAEB"/>
  <text x="478" y="216" style="font: 700 20px 'Segoe UI Emoji'; fill:#F79009;">⌛</text>
  <text x="526" y="202" class="muted">排队中</text>
  <text x="526" y="236" class="number">1</text>

  <rect x="704" y="168" width="238" height="92" rx="20" fill="#FFFFFF" filter="url(#softShadow)"/>
  <rect x="724" y="188" width="42" height="42" rx="14" fill="#ECFDF3"/>
  <text x="736" y="216" style="font: 700 20px 'Segoe UI Emoji'; fill:#12B76A;">▶</text>
  <text x="784" y="202" class="muted">运行中</text>
  <text x="784" y="236" class="number">0</text>

  <rect x="962" y="168" width="268" height="92" rx="20" fill="#FFFFFF" filter="url(#softShadow)"/>
  <rect x="982" y="188" width="42" height="42" rx="14" fill="#F4F3FF"/>
  <text x="994" y="216" style="font: 700 20px 'Segoe UI Emoji'; fill:#7C3AED;">🤖</text>
  <text x="1042" y="202" class="muted">当前 AICLI</text>
  <text x="1042" y="236" class="card-title">空闲 · 可执行定时任务</text>

  <!-- Toolbar -->
  <rect x="188" y="284" width="1042" height="64" rx="20" fill="#FFFFFF" filter="url(#softShadow)"/>
  <rect x="212" y="300" width="126" height="34" rx="12" fill="url(#accent)"/>
  <text x="237" y="322" class="btn">+ 新建任务</text>
  <rect x="350" y="300" width="94" height="34" rx="12" fill="#F2F4F7"/>
  <text x="370" y="322" class="btn2">全部启用</text>
  <rect x="454" y="300" width="94" height="34" rx="12" fill="#F2F4F7"/>
  <text x="474" y="322" class="btn2">全部禁用</text>
  <rect x="558" y="300" width="72" height="34" rx="12" fill="#F2F4F7"/>
  <text x="581" y="322" class="btn2">刷新</text>
  <rect x="850" y="300" width="356" height="34" rx="12" fill="#F9FAFB" stroke="#EAECF0"/>
  <text x="874" y="322" class="muted">搜索任务名称 / prompt / 状态...</text>

  <!-- Content columns -->
  <rect x="188" y="372" width="456" height="424" rx="22" fill="#FFFFFF" filter="url(#softShadow)"/>
  <text x="216" y="408" class="section">任务列表</text>
  <text x="560" y="408" class="muted">共 4 个</text>

  <!-- Task card 1 selected -->
  <rect x="212" y="428" width="408" height="104" rx="18" fill="#EFF6FF" stroke="#1677FF"/>
  <circle cx="235" cy="455" r="6" fill="#12B76A"/>
  <text x="254" y="461" class="card-title">每日代码巡检</text>
  <rect x="507" y="443" width="58" height="24" rx="12" fill="#ECFDF3"/>
  <text x="523" y="459" class="pill" fill="#039855">启用</text>
  <text x="254" y="486" class="txt">让 AI 检查当前项目最近变更中的风险。</text>
  <text x="254" y="512" class="muted">下次执行：今天 21:30 · 最近结果：成功</text>
  <rect x="530" y="494" width="62" height="28" rx="10" fill="#FFFFFF" stroke="#D0D5DD"/>
  <text x="548" y="512" class="btn2">运行</text>

  <!-- Task card 2 -->
  <rect x="212" y="546" width="408" height="98" rx="18" fill="#FFFFFF" stroke="#EAECF0"/>
  <circle cx="235" cy="573" r="6" fill="#F79009"/>
  <text x="254" y="579" class="card-title">每周项目总结</text>
  <rect x="507" y="561" width="58" height="24" rx="12" fill="#FFFAEB"/>
  <text x="523" y="577" class="pill" fill="#B54708">排队</text>
  <text x="254" y="604" class="txt">汇总本周改动，生成一份可读报告。</text>
  <text x="254" y="630" class="muted">下次执行：周五 18:00 · 最近结果：未运行</text>

  <!-- Task card 3 -->
  <rect x="212" y="658" width="408" height="98" rx="18" fill="#FFFFFF" stroke="#EAECF0"/>
  <circle cx="235" cy="685" r="6" fill="#98A2B3"/>
  <text x="254" y="691" class="card-title">构建失败复盘</text>
  <rect x="507" y="673" width="58" height="24" rx="12" fill="#F2F4F7"/>
  <text x="523" y="689" class="pill" fill="#667085">禁用</text>
  <text x="254" y="716" class="txt">构建失败后让 AI 总结原因和修复方向。</text>
  <text x="254" y="742" class="muted">下次执行：禁用 · 最近结果：失败</text>

  <!-- Right detail panel -->
  <rect x="668" y="372" width="562" height="424" rx="22" fill="#FFFFFF" filter="url(#softShadow)"/>
  <text x="696" y="408" class="section">每日代码巡检</text>
  <rect x="1118" y="386" width="82" height="32" rx="11" fill="#F2F4F7"/>
  <text x="1145" y="407" class="btn2">编辑</text>
  <rect x="1026" y="386" width="82" height="32" rx="11" fill="#1677FF"/>
  <text x="1053" y="407" class="btn">运行</text>

  <text x="696" y="448" class="label">任务内容</text>
  <rect x="696" y="462" width="504" height="92" rx="16" fill="#F9FAFB" stroke="#EAECF0"/>
  <text x="716" y="490" class="txt">请检查当前项目最近的代码变更，找出潜在风险、</text>
  <text x="716" y="516" class="txt">可疑实现和需要补测试的地方。最后给出明确的</text>
  <text x="716" y="542" class="txt">修改建议，不要直接改代码。</text>

  <text x="696" y="586" class="label">执行计划</text>
  <rect x="696" y="600" width="238" height="68" rx="16" fill="#F9FAFB" stroke="#EAECF0"/>
  <text x="716" y="628" class="muted">频率</text>
  <text x="716" y="652" class="card-title">每天 21:30</text>
  <rect x="950" y="600" width="250" height="68" rx="16" fill="#F9FAFB" stroke="#EAECF0"/>
  <text x="970" y="628" class="muted">超时时间</text>
  <text x="970" y="652" class="card-title">30 分钟</text>

  <text x="696" y="700" class="label">AICLI 策略</text>
  <rect x="696" y="714" width="238" height="50" rx="16" fill="#EFF8FF" stroke="#B2DDFF"/>
  <circle cx="718" cy="739" r="5" fill="#1677FF"/>
  <text x="734" y="744" class="txt">使用当前 AICLI</text>
  <rect x="950" y="714" width="250" height="50" rx="16" fill="#FFFAEB" stroke="#FEDF89"/>
  <circle cx="972" cy="739" r="5" fill="#F79009"/>
  <text x="988" y="744" class="txt">忙碌时排队等待</text>

  <!-- Timeline -->
  <text x="696" y="790" class="label">最近运行记录</text>
  <circle cx="824" cy="787" r="5" fill="#12B76A"/>
  <text x="838" y="792" class="muted">20:30 成功 · 输出 2.1K tokens</text>
</svg>
