<svg width="1440" height="900" viewBox="0 0 1440 900" fill="none" xmlns="http://www.w3.org/2000/svg">
  <defs>
    <filter id="shadow" x="-20%" y="-20%" width="140%" height="140%">
      <feDropShadow dx="0" dy="18" stdDeviation="22" flood-color="#101828" flood-opacity="0.16"/>
    </filter>
    <linearGradient id="bg" x1="0" y1="0" x2="1440" y2="900">
      <stop stop-color="#F5F7FB"/>
      <stop offset="1" stop-color="#EDF2F7"/>
    </linearGradient>
    <linearGradient id="accent" x1="0" y1="0" x2="1" y2="1">
      <stop stop-color="#2563EB"/>
      <stop offset="1" stop-color="#7C3AED"/>
    </linearGradient>
    <style>
      .title { font: 700 24px "Inter", "Segoe UI", "Microsoft YaHei", sans-serif; fill: #101828; }
      .h1 { font: 700 22px "Inter", "Segoe UI", "Microsoft YaHei", sans-serif; fill: #101828; }
      .h2 { font: 700 16px "Inter", "Segoe UI", "Microsoft YaHei", sans-serif; fill: #101828; }
      .h3 { font: 650 14px "Inter", "Segoe UI", "Microsoft YaHei", sans-serif; fill: #344054; }
      .txt { font: 400 13px "Inter", "Segoe UI", "Microsoft YaHei", sans-serif; fill: #475467; }
      .muted { font: 400 12px "Inter", "Segoe UI", "Microsoft YaHei", sans-serif; fill: #667085; }
      .tiny { font: 500 11px "Inter", "Segoe UI", "Microsoft YaHei", sans-serif; fill: #667085; }
      .btn { font: 650 13px "Inter", "Segoe UI", "Microsoft YaHei", sans-serif; fill: #FFFFFF; }
      .btn2 { font: 650 13px "Inter", "Segoe UI", "Microsoft YaHei", sans-serif; fill: #344054; }
      .mono { font: 400 12px "Cascadia Code", "Consolas", monospace; fill: #344054; }
      .pill { font: 650 11px "Inter", "Segoe UI", "Microsoft YaHei", sans-serif; }
    </style>
  </defs>

  <rect width="1440" height="900" fill="url(#bg)"/>

  <!-- App window -->
  <rect x="36" y="28" width="1368" height="844" rx="22" fill="#FFFFFF" filter="url(#shadow)"/>
  <rect x="36" y="28" width="1368" height="64" rx="22" fill="#F9FAFB"/>
  <path d="M36 70H1404" stroke="#EAECF0"/>
  <circle cx="67" cy="59" r="7" fill="#FF5F57"/>
  <circle cx="91" cy="59" r="7" fill="#FFBD2E"/>
  <circle cx="115" cy="59" r="7" fill="#28C840"/>
  <text x="145" y="66" class="title">Multi-AI Code</text>

  <rect x="1098" y="44" width="112" height="32" rx="10" fill="#F2F4F7"/>
  <text x="1124" y="65" class="btn2">习惯监控</text>
  <rect x="1222" y="44" width="116" height="32" rx="10" fill="url(#accent)"/>
  <text x="1248" y="65" class="btn">Skill 管理</text>

  <!-- Modal -->
  <rect x="88" y="116" width="1264" height="708" rx="24" fill="#FFFFFF" stroke="#D0D5DD"/>

  <!-- Header -->
  <text x="120" y="163" class="h1">🧩 Skill 管理中心</text>
  <text x="120" y="188" class="txt">发现本机已有 Skill，按来源管理启用状态，并把启用的 Skill 提供给编排流水线使用。</text>
  <rect x="1198" y="138" width="112" height="36" rx="12" fill="#F2F4F7" stroke="#D0D5DD"/>
  <text x="1228" y="161" class="btn2">关闭</text>

  <!-- Toolbar -->
  <rect x="120" y="216" width="1190" height="64" rx="16" fill="#F9FAFB" stroke="#EAECF0"/>
  <rect x="140" y="230" width="142" height="36" rx="11" fill="url(#accent)"/>
  <text x="164" y="253" class="btn">扫描本机 Skill</text>
  <rect x="294" y="230" width="142" height="36" rx="11" fill="#FFFFFF" stroke="#D0D5DD"/>
  <text x="318" y="253" class="btn2">添加 Skill 目录</text>
  <rect x="456" y="230" width="414" height="36" rx="11" fill="#FFFFFF" stroke="#D0D5DD"/>
  <text x="478" y="253" class="muted">搜索 Skill 名称 / 描述 / 来源路径...</text>
  <rect x="888" y="230" width="132" height="36" rx="11" fill="#FFFFFF" stroke="#D0D5DD"/>
  <text x="914" y="253" class="btn2">全部状态 ▾</text>
  <rect x="1032" y="230" width="126" height="36" rx="11" fill="#FFFFFF" stroke="#D0D5DD"/>
  <text x="1056" y="253" class="btn2">全部来源 ▾</text>
  <text x="1180" y="253" class="muted">42 个 Skill · 启用 12</text>

  <!-- Tabs -->
  <rect x="120" y="300" width="1190" height="46" rx="14" fill="#F9FAFB" stroke="#EAECF0"/>
  <rect x="128" y="308" width="136" height="30" rx="10" fill="#FFFFFF" stroke="#D0D5DD"/>
  <text x="165" y="328" class="h3">Skill 管理</text>
  <text x="294" y="328" class="muted">Skill 编排</text>

  <!-- Three columns -->
  <rect x="120" y="366" width="250" height="404" rx="18" fill="#FCFCFD" stroke="#EAECF0"/>
  <rect x="390" y="366" width="570" height="404" rx="18" fill="#FCFCFD" stroke="#EAECF0"/>
  <rect x="980" y="366" width="330" height="404" rx="18" fill="#FCFCFD" stroke="#EAECF0"/>

  <!-- Left source panel -->
  <text x="144" y="400" class="h2">Skill 来源</text>
  <text x="144" y="424" class="muted">管理扫描目录，不在这里新建 Skill。</text>

  <rect x="140" y="444" width="210" height="66" rx="14" fill="#EEF4FF" stroke="#B2CCFF"/>
  <circle cx="160" cy="468" r="6" fill="#2563EB"/>
  <text x="176" y="468" class="h3">Claude 官方插件</text>
  <text x="176" y="489" class="tiny">superpowers / 5.1.0</text>
  <rect x="307" y="458" width="30" height="20" rx="10" fill="#D1E9FF"/>
  <text x="316" y="472" class="pill" fill="#175CD3">18</text>

  <rect x="140" y="522" width="210" height="66" rx="14" fill="#FFFFFF" stroke="#EAECF0"/>
  <circle cx="160" cy="546" r="6" fill="#12B76A"/>
  <text x="176" y="546" class="h3">Codex 系统 Skills</text>
  <text x="176" y="567" class="tiny">.codex / skills / system</text>
  <rect x="312" y="536" width="24" height="20" rx="10" fill="#DCFAE6"/>
  <text x="320" y="550" class="pill" fill="#067647">5</text>

  <rect x="140" y="600" width="210" height="66" rx="14" fill="#FFFFFF" stroke="#EAECF0"/>
  <circle cx="160" cy="624" r="6" fill="#F79009"/>
  <text x="176" y="624" class="h3">项目级 Skills</text>
  <text x="176" y="645" class="tiny">.multi-ai-code / skills</text>
  <rect x="312" y="614" width="24" height="20" rx="10" fill="#FEF0C7"/>
  <text x="320" y="628" class="pill" fill="#B54708">3</text>

  <rect x="140" y="678" width="210" height="66" rx="14" fill="#FFFFFF" stroke="#EAECF0"/>
  <circle cx="160" cy="702" r="6" fill="#7C3AED"/>
  <text x="176" y="702" class="h3">自定义目录</text>
  <text x="176" y="723" class="tiny">E:\OpenSource\skills</text>
  <rect x="306" y="692" width="30" height="20" rx="10" fill="#EDE9FE"/>
  <text x="315" y="706" class="pill" fill="#5B21B6">16</text>

  <!-- Middle list -->
  <text x="414" y="400" class="h2">发现的 Skills</text>
  <text x="414" y="424" class="muted">只显示机器上已发现的 Skill；启用后才进入快捷使用和编排。</text>

  <rect x="414" y="444" width="522" height="62" rx="14" fill="#FFFFFF" stroke="#D0D5DD"/>
  <circle cx="440" cy="475" r="16" fill="#EEF4FF"/>
  <text x="432" y="481" class="h3">🧠</text>
  <text x="466" y="468" class="h3">brainstorming</text>
  <text x="466" y="488" class="tiny">开始复杂任务前澄清需求和方案 · Claude 官方插件</text>
  <rect x="782" y="460" width="52" height="24" rx="12" fill="#12B76A"/>
  <circle cx="822" cy="472" r="9" fill="#FFFFFF"/>
  <text x="848" y="476" class="pill" fill="#067647">启用</text>
  <circle cx="912" cy="472" r="6" fill="#12B76A"/>

  <rect x="414" y="518" width="522" height="62" rx="14" fill="#FFFFFF" stroke="#EAECF0"/>
  <circle cx="440" cy="549" r="16" fill="#F4EBFF"/>
  <text x="432" y="555" class="h3">🧪</text>
  <text x="466" y="542" class="h3">test-driven-development</text>
  <text x="466" y="562" class="tiny">测试先行，红绿重构 · Claude 官方插件</text>
  <rect x="782" y="534" width="52" height="24" rx="12" fill="#D0D5DD"/>
  <circle cx="794" cy="546" r="9" fill="#FFFFFF"/>
  <text x="848" y="550" class="pill" fill="#667085">关闭</text>
  <circle cx="912" cy="546" r="6" fill="#98A2B3"/>

  <rect x="414" y="592" width="522" height="62" rx="14" fill="#FFFFFF" stroke="#EAECF0"/>
  <circle cx="440" cy="623" r="16" fill="#ECFDF3"/>
  <text x="432" y="629" class="h3">✅</text>
  <text x="466" y="616" class="h3">verification-before-completion</text>
  <text x="466" y="636" class="tiny">完成前必须运行验证命令 · Claude 官方插件</text>
  <rect x="782" y="608" width="52" height="24" rx="12" fill="#12B76A"/>
  <circle cx="822" cy="620" r="9" fill="#FFFFFF"/>
  <text x="848" y="624" class="pill" fill="#067647">启用</text>
  <circle cx="912" cy="620" r="6" fill="#12B76A"/>

  <rect x="414" y="666" width="522" height="62" rx="14" fill="#FFFFFF" stroke="#EAECF0"/>
  <circle cx="440" cy="697" r="16" fill="#FFF6ED"/>
  <text x="432" y="703" class="h3">📝</text>
  <text x="466" y="690" class="h3">writing-plans</text>
  <text x="466" y="710" class="tiny">把设计拆成可执行实施计划 · Codex 系统 Skills</text>
  <rect x="782" y="682" width="52" height="24" rx="12" fill="#12B76A"/>
  <circle cx="822" cy="694" r="9" fill="#FFFFFF"/>
  <text x="848" y="698" class="pill" fill="#067647">启用</text>
  <circle cx="912" cy="694" r="6" fill="#12B76A"/>

  <!-- Right detail -->
  <text x="1004" y="400" class="h2">Skill 详情</text>
  <text x="1004" y="424" class="muted">选中 Skill 后查看真实 SKILL.md。</text>

  <rect x="1004" y="444" width="282" height="70" rx="14" fill="#FFFFFF" stroke="#EAECF0"/>
  <text x="1024" y="469" class="h3">brainstorming</text>
  <text x="1024" y="490" class="tiny">状态：启用 · 可编排 · 健康</text>

  <text x="1004" y="540" class="h3">路径</text>
  <rect x="1004" y="552" width="282" height="38" rx="10" fill="#F9FAFB" stroke="#EAECF0"/>
  <text x="1018" y="576" class="mono">C:\Users\...\superpowers\skills</text>

  <text x="1004" y="618" class="h3">frontmatter</text>
  <rect x="1004" y="630" width="282" height="78" rx="10" fill="#F9FAFB" stroke="#EAECF0"/>
  <text x="1018" y="653" class="mono">name: brainstorming</text>
  <text x="1018" y="673" class="mono">version: 5.1.0</text>
  <text x="1018" y="693" class="mono">description: 需求澄清...</text>

  <text x="1004" y="735" class="h3">操作</text>
  <rect x="1004" y="748" width="84" height="34" rx="10" fill="#FFFFFF" stroke="#D0D5DD"/>
  <text x="1020" y="770" class="btn2">打开目录</text>
  <rect x="1098" y="748" width="84" height="34" rx="10" fill="#FFFFFF" stroke="#D0D5DD"/>
  <text x="1114" y="770" class="btn2">查看文件</text>
  <rect x="1192" y="748" width="94" height="34" rx="10" fill="url(#accent)"/>
  <text x="1210" y="770" class="btn">用于编排</text>

  <!-- Footer -->
  <rect x="120" y="790" width="1190" height="34" rx="12" fill="#F9FAFB" stroke="#EAECF0"/>
  <text x="144" y="812" class="muted">已发现 42 个 Skill，启用 12 个，关闭 30 个，上次扫描 09:42。不会在启动时加载全部 Skill，只保存启用清单和来源索引。</text>
</svg>
