<svg width="1600" height="980" viewBox="0 0 1600 980" fill="none" xmlns="http://www.w3.org/2000/svg">
  <defs>
    <linearGradient id="appBg" x1="0" y1="0" x2="1600" y2="980" gradientUnits="userSpaceOnUse">
      <stop stop-color="#F7FAFF"/>
      <stop offset="1" stop-color="#EEF5FF"/>
    </linearGradient>
    <linearGradient id="primary" x1="1052" y1="196" x2="1374" y2="494" gradientUnits="userSpaceOnUse">
      <stop stop-color="#1E8BFF"/>
      <stop offset=".52" stop-color="#6C6BFF"/>
      <stop offset="1" stop-color="#A855F7"/>
    </linearGradient>
    <linearGradient id="status" x1="973" y1="631" x2="1394" y2="846" gradientUnits="userSpaceOnUse">
      <stop stop-color="#ECFEFF"/>
      <stop offset="1" stop-color="#F5F3FF"/>
    </linearGradient>
    <filter id="shadow" x="-10%" y="-10%" width="120%" height="120%" color-interpolation-filters="sRGB">
      <feDropShadow dx="0" dy="24" stdDeviation="36" flood-color="#1E293B" flood-opacity=".16"/>
    </filter>
    <filter id="soft" x="-20%" y="-20%" width="140%" height="140%" color-interpolation-filters="sRGB">
      <feDropShadow dx="0" dy="10" stdDeviation="18" flood-color="#2563EB" flood-opacity=".18"/>
    </filter>
    <style>
      .mono { font-family: "Cascadia Code", Consolas, monospace; }
      .sans { font-family: "Inter", "Noto Sans SC", "Microsoft YaHei", Arial, sans-serif; }
      .muted { fill: #64748B; }
      .light { fill: #94A3B8; }
      .title { fill: #0F172A; font-weight: 800; }
      .label { fill: #334155; font-weight: 700; }
      .card { fill: #FFFFFF; stroke: #E2E8F0; stroke-width: 1.5; }
      .input { fill: #F8FAFC; stroke: #CBD5E1; stroke-width: 1.5; }
      .chip { fill: #EFF6FF; stroke: #BFDBFE; stroke-width: 1.2; }
      .green { fill: #22C55E; }
      .blue { fill: #0284C7; }
      .red { fill: #EF4444; }
      .orange { fill: #F97316; }
    </style>
  </defs>

  <rect width="1600" height="980" fill="url(#appBg)"/>

  <!-- Shell header -->
  <rect x="0" y="0" width="1600" height="72" fill="#FFFFFF" stroke="#E5E7EB"/>
  <rect x="18" y="18" width="132" height="38" rx="10" fill="#2F80ED"/>
  <text x="46" y="43" class="sans" fill="#FFFFFF" font-size="16" font-weight="800">项目：obs-studio</text>
  <rect x="172" y="18" width="34" height="34" rx="9" fill="#3B82F6"/>
  <text x="184" y="42" class="sans" fill="#FFFFFF" font-size="17" font-weight="800">M</text>
  <text x="221" y="43" class="sans title" font-size="19">Multi-AI Code</text>
  <rect x="330" y="18" width="650" height="38" rx="10" fill="#F1F5F9"/>
  <text x="352" y="43" class="mono muted" font-size="14">v0.1.0 · E:\OpenSource\obs-studio</text>
  <rect x="1196" y="18" width="106" height="38" rx="10" fill="#FFFFFF" stroke="#E2E8F0"/>
  <text x="1222" y="43" class="sans muted" font-size="15" font-weight="700">Skill 管理</text>
  <rect x="1314" y="18" width="126" height="38" rx="10" fill="#E0F2FE" stroke="#BAE6FD"/>
  <circle cx="1334" cy="37" r="6" class="green"/>
  <text x="1350" y="43" class="sans" fill="#0369A1" font-size="15" font-weight="800">远程 IM</text>
  <rect x="1454" y="18" width="92" height="38" rx="10" fill="#FFFFFF" stroke="#E2E8F0"/>
  <text x="1480" y="43" class="sans muted" font-size="15" font-weight="700">设置</text>

  <!-- Background terminal -->
  <rect x="0" y="72" width="1600" height="908" fill="#F8FAFC"/>
  <rect x="0" y="124" width="1600" height="1" fill="#E2E8F0"/>
  <text x="24" y="109" class="sans label" font-size="18">方案：</text>
  <rect x="92" y="88" width="936" height="36" rx="9" fill="#FFFFFF" stroke="#E2E8F0"/>
  <text x="116" y="112" class="sans light" font-size="15">无方案模式</text>
  <rect x="1096" y="88" width="114" height="36" rx="9" fill="#FFFFFF" stroke="#E2E8F0"/>
  <text x="1124" y="112" class="sans muted" font-size="15" font-weight="700">定时任务</text>
  <rect x="1222" y="88" width="112" height="36" rx="9" fill="#FFFFFF" stroke="#E2E8F0"/>
  <text x="1248" y="112" class="sans muted" font-size="15" font-weight="700">Skill 编排</text>
  <rect x="1346" y="88" width="82" height="36" rx="9" fill="#FFFFFF" stroke="#E2E8F0"/>
  <text x="1372" y="112" class="sans muted" font-size="15" font-weight="700">构建</text>
  <rect x="1440" y="88" width="94" height="36" rx="9" fill="#DBEAFE" stroke="#93C5FD"/>
  <text x="1464" y="112" class="sans" fill="#2563EB" font-size="15" font-weight="800">运行中</text>

  <rect x="16" y="154" width="1568" height="782" rx="14" fill="#FFFFFF" stroke="#E2E8F0"/>
  <text x="36" y="194" class="sans title" font-size="18">无方案模式</text>
  <rect x="130" y="174" width="70" height="28" rx="14" fill="#DCFCE7"/>
  <circle cx="148" cy="188" r="5" class="green"/>
  <text x="160" y="194" class="sans" fill="#15803D" font-size="13" font-weight="800">运行中</text>
  <text x="42" y="258" class="mono" fill="#64748B" font-size="18">Claude Code v2.1.183</text>
  <text x="42" y="298" class="mono light" font-size="16">obs-studio|Opus 4.8|total in 0 / out 0</text>
  <line x1="16" y1="334" x2="1584" y2="334" stroke="#CBD5E1"/>
  <text x="42" y="376" class="mono muted" font-size="16">› Try "write a test for &lt;filepath&gt;"</text>

  <!-- Modal -->
  <rect x="296" y="116" width="1008" height="812" rx="26" fill="#FFFFFF" filter="url(#shadow)"/>
  <rect x="296" y="116" width="1008" height="812" rx="26" stroke="#E2E8F0" stroke-width="1.5"/>

  <!-- Modal header -->
  <circle cx="338" cy="164" r="7" fill="#38BDF8"/>
  <text x="372" y="169" class="sans title" font-size="26">设置中心</text>
  <text x="372" y="197" class="sans light" font-size="14">快捷键 · AI CLI · 项目构建 · 项目运行 · 远程 IM</text>
  <rect x="1052" y="144" width="118" height="34" rx="17" fill="#DCFCE7"/>
  <circle cx="1074" cy="161" r="5" class="green"/>
  <text x="1088" y="167" class="sans" fill="#16A34A" font-size="14" font-weight="800">远程已连接</text>
  <text x="1218" y="169" class="sans light" font-size="24">×</text>

  <!-- Left nav -->
  <text x="336" y="250" class="mono light" font-size="13" letter-spacing="2">CONFIG</text>
  <rect x="334" y="280" width="254" height="64" rx="16" fill="#FFFFFF"/>
  <text x="368" y="307" class="sans muted" font-size="15" font-weight="700">全局快捷键</text>
  <text x="368" y="329" class="sans light" font-size="13">截图采样入口</text>
  <circle cx="350" cy="312" r="4" fill="#67E8F9"/>
  <rect x="334" y="360" width="254" height="64" rx="16" fill="#FFFFFF"/>
  <text x="368" y="387" class="sans muted" font-size="15" font-weight="700">主会话 AI</text>
  <text x="368" y="409" class="sans light" font-size="13">Claude / Codex</text>
  <circle cx="350" cy="392" r="4" fill="#67E8F9"/>
  <rect x="334" y="440" width="254" height="64" rx="16" fill="#FFFFFF"/>
  <text x="368" y="467" class="sans muted" font-size="15" font-weight="700">项目构建</text>
  <text x="368" y="489" class="sans light" font-size="13">步骤 / 环境 / 编码</text>
  <circle cx="350" cy="472" r="4" fill="#67E8F9"/>
  <rect x="334" y="520" width="254" height="64" rx="16" fill="#FFFFFF"/>
  <text x="368" y="547" class="sans muted" font-size="15" font-weight="700">项目运行</text>
  <text x="368" y="569" class="sans light" font-size="13">启动命令</text>
  <circle cx="350" cy="552" r="4" fill="#67E8F9"/>
  <rect x="324" y="604" width="276" height="82" rx="20" fill="#EEF6FF" stroke="#BFDBFE"/>
  <rect x="324" y="622" width="4" height="46" rx="2" fill="#0EA5E9"/>
  <text x="370" y="637" class="sans title" font-size="17">远程 IM</text>
  <text x="370" y="661" class="sans muted" font-size="13">开启即接入当前 AICLI</text>
  <circle cx="350" cy="645" r="8" fill="#0EA5E9"/>
  <path d="M347 645.5l2.2 2.2 4.4-5" stroke="#fff" stroke-width="2" stroke-linecap="round" stroke-linejoin="round"/>
  <text x="336" y="824" class="sans light" font-size="13">当前项目</text>
  <text x="336" y="850" class="mono label" font-size="15">p_mpcoxwag_3879cc</text>
  <text x="336" y="878" class="sans" fill="#06B6D4" font-size="13" font-weight="800">已选择</text>

  <!-- Main content -->
  <rect x="628" y="238" width="610" height="588" rx="24" fill="#F8FAFC" stroke="#E2E8F0"/>
  <rect x="654" y="264" width="558" height="156" rx="22" fill="url(#primary)" filter="url(#soft)"/>
  <circle cx="704" cy="319" r="25" fill="#FFFFFF" fill-opacity=".24"/>
  <path d="M693 319h22M704 308v22" stroke="#FFFFFF" stroke-width="5" stroke-linecap="round"/>
  <text x="746" y="308" class="sans" fill="#FFFFFF" font-size="28" font-weight="900">远程 IM 控制</text>
  <text x="746" y="346" class="sans" fill="#E0F2FE" font-size="16" font-weight="700">开启 IM 后，白名单消息自动转交给当前 AICLI</text>
  <rect x="746" y="370" width="126" height="32" rx="16" fill="#FFFFFF" fill-opacity=".22" stroke="#FFFFFF" stroke-opacity=".3"/>
  <circle cx="764" cy="386" r="5" fill="#86EFAC"/>
  <text x="778" y="392" class="sans" fill="#FFFFFF" font-size="13" font-weight="800">腾讯 IM 已连接</text>
  <rect x="884" y="370" width="128" height="32" rx="16" fill="#FFFFFF" fill-opacity=".16" stroke="#FFFFFF" stroke-opacity=".25"/>
  <text x="906" y="392" class="sans" fill="#FFFFFF" font-size="13" font-weight="800">仅白名单可控</text>

  <!-- Cards row -->
  <rect x="654" y="448" width="270" height="152" rx="20" class="card"/>
  <text x="678" y="482" class="sans title" font-size="18">连接配置</text>
  <text x="678" y="512" class="sans muted" font-size="13">SDKAppID</text>
  <rect x="678" y="524" width="222" height="38" rx="10" class="input"/>
  <text x="694" y="548" class="mono light" font-size="13">1400000000</text>
  <text x="678" y="584" class="sans" fill="#0EA5E9" font-size="13" font-weight="800">UserSig 由服务端签发</text>

  <rect x="942" y="448" width="270" height="152" rx="20" class="card"/>
  <text x="966" y="482" class="sans title" font-size="18">身份与白名单</text>
  <text x="966" y="512" class="sans muted" font-size="13">桌面端 UserID</text>
  <rect x="966" y="524" width="222" height="38" rx="10" class="input"/>
  <text x="982" y="548" class="mono light" font-size="13">desktop_obs_studio</text>
  <text x="966" y="584" class="sans" fill="#0EA5E9" font-size="13" font-weight="800">允许：phone_admin</text>

  <!-- Status pipeline -->
  <rect x="654" y="624" width="558" height="176" rx="22" fill="url(#status)" stroke="#D8B4FE"/>
  <text x="678" y="660" class="sans title" font-size="18">消息链路状态</text>
  <text x="678" y="684" class="sans muted" font-size="13">每个环节只显示状态，不暴露大模型完整上下文</text>

  <circle cx="724" cy="740" r="25" fill="#E0F2FE" stroke="#7DD3FC"/>
  <text x="713" y="747" class="sans blue" font-size="18" font-weight="900">1</text>
  <text x="684" y="782" class="sans label" font-size="13">手机消息</text>
  <line x1="752" y1="740" x2="842" y2="740" stroke="#93C5FD" stroke-width="3" stroke-linecap="round"/>
  <circle cx="872" cy="740" r="25" fill="#DCFCE7" stroke="#86EFAC"/>
  <text x="861" y="747" class="sans" fill="#16A34A" font-size="18" font-weight="900">2</text>
  <text x="834" y="782" class="sans label" font-size="13">白名单校验</text>
  <line x1="900" y1="740" x2="990" y2="740" stroke="#86EFAC" stroke-width="3" stroke-linecap="round"/>
  <circle cx="1020" cy="740" r="25" fill="#FEF3C7" stroke="#FCD34D"/>
  <text x="1009" y="747" class="sans" fill="#B45309" font-size="18" font-weight="900">3</text>
  <text x="990" y="782" class="sans label" font-size="13">发送 AICLI</text>
  <line x1="1048" y1="740" x2="1138" y2="740" stroke="#FCD34D" stroke-width="3" stroke-linecap="round"/>
  <circle cx="1168" cy="740" r="25" fill="#F3E8FF" stroke="#C084FC"/>
  <text x="1157" y="747" class="sans" fill="#7E22CE" font-size="18" font-weight="900">4</text>
  <text x="1134" y="782" class="sans label" font-size="13">输出回发</text>

  <!-- Right preview panel -->
  <rect x="978" y="238" width="260" height="178" rx="20" fill="#0F172A" fill-opacity=".76"/>
  <text x="1002" y="274" class="sans" fill="#E2E8F0" font-size="15" font-weight="800">手机侧预览</text>
  <rect x="1002" y="294" width="182" height="34" rx="14" fill="#E0F2FE"/>
  <text x="1018" y="316" class="sans" fill="#0369A1" font-size="13">帮我检查构建错误</text>
  <rect x="1034" y="342" width="154" height="34" rx="14" fill="#DCFCE7"/>
  <text x="1050" y="364" class="sans" fill="#166534" font-size="13">已发送给 AICLI</text>
  <rect x="1002" y="390" width="210" height="10" rx="5" fill="#475569"/>

  <!-- Footer -->
  <text x="336" y="882" class="sans light" font-size="13">变更点击“保存设置”后生效。</text>
  <rect x="964" y="858" width="86" height="42" rx="16" fill="#FFFFFF"/>
  <text x="991" y="884" class="sans muted" font-size="15" font-weight="700">取消</text>
  <rect x="1068" y="858" width="144" height="42" rx="16" fill="#22C3EE"/>
  <text x="1110" y="884" class="sans" fill="#FFFFFF" font-size="15" font-weight="900">保存设置</text>

  <!-- Annotation callouts -->
  <rect x="1010" y="828" width="202" height="18" rx="9" fill="#E0F2FE"/>
  <text x="1032" y="842" class="sans" fill="#0284C7" font-size="11" font-weight="800">开启即生效；V1 不自动创建 AICLI</text>
</svg>
