<svg xmlns="http://www.w3.org/2000/svg" viewBox="0 0 1024 1024">
  <defs>
    <linearGradient id="outer" x1="12%" y1="8%" x2="88%" y2="92%">
      <stop offset="0%" stop-color="#f8fcff"/>
      <stop offset="100%" stop-color="#eaf5ff"/>
    </linearGradient>
    <linearGradient id="mark" x1="18%" y1="10%" x2="88%" y2="92%">
      <stop offset="0%" stop-color="#12c8ff"/>
      <stop offset="55%" stop-color="#1396f2"/>
      <stop offset="100%" stop-color="#2563eb"/>
    </linearGradient>
    <linearGradient id="chip" x1="0%" y1="0%" x2="100%" y2="100%">
      <stop offset="0%" stop-color="#e9fbff"/>
      <stop offset="100%" stop-color="#d8edff"/>
    </linearGradient>
  </defs>

  <rect x="60" y="60" width="904" height="904" rx="222" ry="222" fill="url(#outer)" />
  <rect
    x="72"
    y="72"
    width="880"
    height="880"
    rx="210"
    ry="210"
    fill="none"
    stroke="#d7e8f8"
    stroke-width="12"
  />

  <rect x="184" y="180" width="656" height="656" rx="172" ry="172" fill="url(#mark)" />
  <path
    d="M306 684V340h110l96 166 96-166h110v344H604V526l-62 108h-60l-62-108v158H306Z"
    fill="#ffffff"
  />

  <rect x="638" y="626" width="188" height="132" rx="48" ry="48" fill="url(#chip)" />
  <path
    d="M694 716l-42-42 42-42M764 632l42 42-42 42"
    fill="none"
    stroke="#1677d2"
    stroke-width="26"
    stroke-linecap="round"
    stroke-linejoin="round"
  />
  <circle cx="618" cy="408" r="20" fill="#b7ecff" opacity="0.9" />
  <circle cx="684" cy="408" r="20" fill="#b7ecff" opacity="0.72" />
  <circle cx="750" cy="408" r="20" fill="#b7ecff" opacity="0.54" />
</svg>
